<?xml version="1.0" standalone="no"?>
<!DOCTYPE svg PUBLIC "-//W3C//DTD SVG 20010904//EN"
 "http://www.w3.org/TR/2001/REC-SVG-20010904/DTD/svg10.dtd">
<svg version="1.0" xmlns="http://www.w3.org/2000/svg"
 width="498.000000pt" height="498.000000pt" viewBox="0 0 498.000000 498.000000"
 preserveAspectRatio="xMidYMid meet">

<g transform="translate(0.000000,498.000000) scale(0.100000,-0.100000)"
fill="#000000" stroke="none">
<path d="M0 2490 l0 -2490 1880 0 c1668 0 1879 2 1874 15 -4 8 -3 27 0 41 5
20 12 25 33 22 35 -4 52 -31 35 -58 -11 -18 -10 -20 10 -20 20 0 23 5 23 37 0
35 2 38 29 38 16 0 31 -6 34 -14 3 -10 -1 -12 -17 -8 -16 4 -21 1 -21 -15 0
-15 4 -18 22 -13 17 6 20 4 15 -9 -4 -10 -1 -16 8 -16 11 0 15 13 15 55 0 42
3 55 15 55 8 0 15 -6 15 -13 0 -7 10 -17 23 -22 15 -7 23 -20 25 -42 5 -55 22
-37 22 23 0 40 3 55 13 51 13 -4 14 -7 16 -67 2 -61 21 -48 21 15 0 42 3 55
15 55 12 0 15 -13 15 -55 0 -42 3 -55 15 -55 12 0 15 13 15 55 0 30 5 55 10
55 6 0 10 -25 10 -55 0 -42 3 -55 15 -55 12 0 15 13 15 55 0 42 3 55 15 55 8
0 15 -6 15 -14 0 -7 10 -16 21 -19 18 -5 21 -12 17 -41 -3 -29 -1 -36 13 -36
14 0 19 10 21 43 3 36 6 41 23 39 26 -5 34 -13 18 -19 -7 -3 -13 -18 -13 -34
0 -24 4 -29 23 -29 20 0 22 4 19 40 -3 25 0 40 7 40 6 0 11 -13 11 -30 0 -40
18 -38 22 3 4 46 22 39 26 -10 2 -29 8 -43 18 -43 10 0 14 14 14 55 0 30 5 55
10 55 6 0 10 -25 10 -55 0 -47 3 -55 19 -55 17 0 18 4 11 36 -9 41 -5 60 16
68 14 5 19 -10 16 -44 -3 -28 8 -60 21 -60 8 0 12 14 12 37 0 36 2 38 30 38
27 0 30 -3 33 -37 2 -28 8 -38 20 -38 14 0 17 7 14 40 -3 25 0 40 7 40 6 0 11
-11 11 -24 0 -38 18 -41 22 -4 4 47 22 41 26 -9 3 -45 24 -59 37 -25 6 16 7
16 19 0 22 -29 35 -21 38 25 3 36 6 41 23 39 26 -5 34 -13 17 -19 -6 -3 -12
-18 -12 -34 0 -25 4 -29 26 -29 23 0 25 2 14 15 -10 12 -10 21 -1 41 9 22 17
25 41 22 l30 -5 0 2454 0 2453 -2490 0 -2490 0 0 -2490z m4851 2331 c26 -27
29 -35 29 -98 0 -37 -5 -97 -10 -131 -7 -51 -6 -70 7 -96 22 -46 -2 -101 -53
-122 -87 -36 -171 45 -131 126 11 21 13 40 7 62 -4 18 -11 83 -14 144 l-6 112
37 15 c60 25 100 21 134 -12z m-783 -24 c61 -40 93 -93 99 -166 15 -158 -83
-266 -237 -265 -147 1 -239 90 -240 232 0 102 42 174 125 214 32 15 58 18 126
16 74 -3 91 -7 127 -31z m310 17 c13 -9 28 -28 33 -42 l10 -27 35 43 c40 47
72 54 124 27 35 -18 50 -43 50 -85 0 -24 -12 -44 -50 -84 l-49 -52 54 -54 c63
-62 72 -101 33 -138 -48 -44 -106 -41 -163 9 l-35 31 0 -30 c0 -29 -3 -31 -47
-38 -71 -10 -115 4 -136 46 -15 30 -17 60 -15 215 l3 179 25 7 c45 13 105 9
128 -7z m-1799 -464 c320 -61 556 -184 777 -404 149 -149 242 -287 319 -475
20 -48 21 -56 8 -82 -14 -27 -18 -29 -75 -29 -41 0 -114 14 -217 42 -146 40
-165 42 -286 43 -152 0 -177 -7 -445 -115 -126 -51 -182 -69 -200 -65 -14 4
-101 35 -195 70 -205 75 -293 96 -403 96 -107 0 -168 -12 -360 -67 -120 -35
-180 -47 -255 -51 -91 -5 -100 -8 -115 -31 -9 -14 -29 -33 -44 -42 l-29 -17
30 -13 c16 -6 37 -20 47 -31 9 -10 24 -19 33 -19 24 0 78 -36 92 -61 6 -12 24
-71 40 -132 16 -60 41 -131 55 -158 69 -125 211 -254 330 -299 114 -42 293
-43 407 0 110 41 212 124 282 231 64 95 84 156 92 272 3 53 10 97 15 97 4 0 8
-34 8 -75 0 -136 25 -211 107 -318 179 -233 515 -260 754 -61 116 96 193 221
233 381 38 151 38 151 103 179 39 17 58 22 63 14 32 -52 46 -508 21 -665 -29
-176 -93 -380 -167 -527 -129 -257 -398 -525 -660 -656 -103 -52 -295 -107
-479 -138 -142 -24 -485 -24 -615 -1 -276 50 -446 119 -630 255 -99 73 -255
230 -313 314 -137 199 -233 473 -262 751 -6 54 -8 57 -28 51 -66 -20 -139 -76
-130 -99 7 -21 -14 -53 -47 -70 -42 -22 -173 -20 -241 4 -79 27 -135 57 -153
83 -24 34 -20 76 11 107 25 25 28 35 29 102 0 52 10 106 32 179 55 186 56 193
27 254 -32 67 -53 286 -36 367 17 79 62 153 108 178 52 27 140 -1 186 -60 22
-29 25 -30 31 -12 8 25 133 137 188 168 52 30 83 31 126 5 53 -32 74 -75 69
-142 -4 -64 -35 -113 -97 -155 -41 -29 -39 -29 35 1 55 23 63 30 105 98 65
106 107 164 164 227 262 290 573 453 986 517 130 20 426 12 569 -16z m1906
-951 c43 -43 64 -116 48 -160 -7 -17 -9 -52 -6 -77 3 -26 0 -65 -5 -86 -22
-77 32 -197 103 -230 17 -8 57 -17 89 -21 105 -12 186 -87 186 -170 0 -31 -9
-52 -40 -93 -22 -29 -40 -56 -40 -60 1 -4 19 -19 41 -35 62 -43 75 -98 39
-172 -20 -41 -63 -75 -97 -75 -37 0 -45 -14 -27 -50 19 -37 20 -97 3 -147 -11
-34 -48 -66 -87 -76 -28 -7 -198 18 -249 37 -21 7 -64 21 -95 30 -62 18 -110
65 -124 122 -4 16 -23 49 -43 74 -21 25 -45 57 -54 73 -10 15 -23 27 -30 27
-16 1 -62 40 -75 66 -33 63 -20 251 21 311 12 18 37 39 55 45 20 7 34 20 36
33 24 139 42 207 68 259 22 43 32 79 35 126 5 75 29 183 49 222 40 78 136 91
199 27z m-3218 -165 c-3 -3 -12 -4 -19 -1 -8 3 -5 6 6 6 11 1 17 -2 13 -5z
m46 -1 c-7 -2 -19 -2 -25 0 -7 3 -2 5 12 5 14 0 19 -2 13 -5z m287 -53 c-49
-44 -63 -49 -58 -23 4 20 64 63 87 63 10 -1 -1 -16 -29 -40z m1104 -62 c-9
-18 -19 -35 -22 -38 -8 -9 10 45 20 58 18 22 19 13 2 -20z m-444 -402 c0 -2
-8 -10 -17 -17 -16 -13 -17 -12 -4 4 13 16 21 21 21 13z"/>
<path d="M3902 4662 c-18 -12 -26 -72 -13 -104 7 -20 18 -28 35 -28 32 0 51
25 51 70 0 57 -35 86 -73 62z"/>
<path d="M1655 4028 c-55 -6 -97 -16 -107 -25 -23 -21 -24 -98 -2 -153 19 -46
45 -58 96 -41 18 6 125 29 238 51 221 44 248 56 236 103 -3 13 -14 35 -25 48
-19 23 -23 24 -183 25 -89 1 -203 -3 -253 -8z"/>
<path d="M2705 4026 c-29 -12 -55 -51 -55 -80 0 -29 43 -46 210 -80 96 -20
189 -42 206 -48 49 -17 79 -4 98 42 20 49 21 110 2 135 -27 37 -391 62 -461
31z"/>
<path d="M848 3277 c-14 -10 -41 -19 -61 -20 -38 -1 -41 -17 -4 -17 12 0 60
-10 107 -23 74 -21 89 -22 115 -11 l30 13 -27 1 c-39 0 -69 14 -104 47 -31 28
-31 28 -56 10z"/>
<path d="M3269 2498 l-75 -30 -15 -59 c-9 -32 -15 -59 -14 -59 1 0 43 41 92
90 50 50 90 90 89 89 0 0 -35 -14 -77 -31z"/>
<path d="M1295 2430 c3 -5 10 -10 16 -10 5 0 9 5 9 10 0 6 -7 10 -16 10 -8 0
-12 -4 -9 -10z"/>
<path d="M1377 2395 c3 -14 10 -25 15 -25 13 0 6 43 -8 47 -7 2 -10 -6 -7 -22z"/>
<path d="M3145 2330 c-3 -5 -1 -10 4 -10 6 0 11 5 11 10 0 6 -2 10 -4 10 -3 0
-8 -4 -11 -10z"/>
<path d="M1825 2180 c-10 -17 12 -37 25 -24 8 8 6 15 -4 23 -10 9 -16 9 -21 1z"/>
<path d="M2380 2175 c-10 -12 -9 -16 5 -21 23 -9 40 10 22 25 -11 9 -17 8 -27
-4z"/>
<path d="M2655 2180 c3 -5 8 -10 11 -10 2 0 4 5 4 10 0 6 -5 10 -11 10 -5 0
-7 -4 -4 -10z"/>
<path d="M2106 2161 c-4 -5 -2 -12 3 -15 5 -4 12 -2 15 3 4 5 2 12 -3 15 -5 4
-12 2 -15 -3z"/>
<path d="M3970 30 c0 -17 5 -30 10 -30 6 0 10 13 10 30 0 17 -4 30 -10 30 -5
0 -10 -13 -10 -30z"/>
<path d="M4230 41 c0 -12 5 -21 10 -21 6 0 10 6 10 14 0 8 -4 18 -10 21 -5 3
-10 -3 -10 -14z"/>
<path d="M4930 40 c0 -19 11 -26 23 -14 8 8 -3 34 -14 34 -5 0 -9 -9 -9 -20z"/>
</g>
</svg>
